<svg xmlns="http://www.w3.org/2000/svg" width="1178.8" height="281" overflow="visible"><style>.st0{fill:#00f}</style><path d="M471.4 57.9c0 11.9-2.1 22.2-6.4 30.8s-10.2 15.3-17.7 20c-7.5 4.7-16 7-25.6 7-9.6 0-18.2-2.3-25.6-7-7.5-4.7-13.4-11.4-17.7-20-4.3-8.7-6.4-18.9-6.4-30.8s2.1-22.2 6.4-30.8c4.3-8.7 10.2-15.3 17.7-20 7.5-4.7 16-7 25.6-7 9.6 0 18.2 2.3 25.6 7 7.5 4.7 13.4 11.4 17.7 20 4.2 8.6 6.4 18.9 6.4 30.8zm-13.2 0c0-9.8-1.6-18-4.9-24.7-3.2-6.7-7.6-11.8-13.2-15.2-5.5-3.4-11.7-5.2-18.5-5.2-6.8 0-13 1.7-18.5 5.2-5.5 3.4-9.9 8.5-13.2 15.2-3.2 6.7-4.9 15-4.9 24.7 0 9.8 1.6 18 4.9 24.7s7.6 11.8 13.2 15.2c5.5 3.4 11.7 5.2 18.5 5.2 6.8 0 13-1.7 18.5-5.2 5.5-3.4 9.9-8.5 13.2-15.2s4.9-14.9 4.9-24.7zM484.8 146V29.7h12.5v13.4h1.5c1-1.5 2.3-3.3 4-5.6 1.7-2.3 4.2-4.3 7.4-6.2 3.2-1.8 7.6-2.7 13.1-2.7 7.1 0 13.4 1.8 18.8 5.3 5.4 3.6 9.7 8.6 12.7 15.1s4.6 14.2 4.6 23.1c0 9-1.5 16.7-4.6 23.3-3 6.5-7.3 11.6-12.7 15.2-5.4 3.6-11.6 5.4-18.7 5.4-5.4 0-9.8-.9-13-2.7-3.3-1.8-5.8-3.9-7.5-6.2-1.8-2.3-3.1-4.3-4.1-5.8h-1.1V146h-12.9zm12.7-74c0 6.4.9 12 2.8 16.9 1.9 4.9 4.6 8.7 8.2 11.4 3.6 2.7 8 4.1 13.2 4.1 5.4 0 10-1.4 13.6-4.3 3.7-2.9 6.4-6.8 8.3-11.7 1.9-4.9 2.8-10.4 2.8-16.4 0-5.9-.9-11.3-2.7-16.1-1.8-4.8-4.6-8.6-8.2-11.4-3.7-2.8-8.2-4.2-13.7-4.2-5.3 0-9.7 1.3-13.3 4-3.6 2.7-6.3 6.4-8.1 11.1-1.9 4.8-2.9 10.3-2.9 16.6zM606.9 116c-8.1 0-15.2-1.8-21.1-5.4-5.9-3.6-10.4-8.7-13.6-15.2-3.2-6.5-4.8-14.1-4.8-22.8 0-8.7 1.6-16.3 4.8-22.9 3.2-6.6 7.6-11.8 13.3-15.5 5.7-3.7 12.4-5.6 20-5.6 4.4 0 8.8.7 13 2.2 4.3 1.5 8.2 3.8 11.7 7.1s6.3 7.6 8.4 13c2.1 5.4 3.1 12 3.1 19.9v5.5h-65.2V65.2h52c0-4.8-.9-9-2.8-12.8-1.9-3.7-4.6-6.7-8-8.9-3.5-2.2-7.5-3.2-12.2-3.2-5.2 0-9.6 1.3-13.4 3.8-3.8 2.6-6.7 5.9-8.7 9.9-2 4.1-3 8.4-3 13.1v7.5c0 6.4 1.1 11.8 3.3 16.2 2.2 4.4 5.3 7.8 9.3 10.1 4 2.3 8.6 3.4 13.8 3.4 3.4 0 6.5-.5 9.3-1.5 2.8-1 5.2-2.4 7.2-4.4 2-2 3.6-4.4 4.7-7.3l12.5 3.5c-1.3 4.3-3.5 8-6.7 11.2-3.1 3.2-7 5.7-11.6 7.5s-9.5 2.7-15.3 2.7zM667 63.4v50.9h-13V29.7h12.5v13.2h1.1c2-4.3 5-7.8 9-10.4 4-2.6 9.2-3.9 15.6-3.9 5.7 0 10.7 1.2 15 3.5 4.3 2.3 7.6 5.9 10 10.6 2.4 4.7 3.6 10.7 3.6 17.9v53.7h-13V61.4c0-6.6-1.7-11.8-5.2-15.5-3.4-3.7-8.2-5.6-14.2-5.6-4.1 0-7.8.9-11.1 2.7-3.2 1.8-5.8 4.4-7.7 7.9-1.7 3.4-2.6 7.6-2.6 12.5z"/><path class="st0" d="M803 114.3h-40V1.5h40.3c11.3 0 21.1 2.2 29.3 6.7s14.5 10.9 18.9 19.3c4.4 8.4 6.6 18.5 6.6 30.2s-2.2 21.8-6.6 30.3c-4.4 8.4-10.8 14.9-19 19.4-8.2 4.6-18 6.9-29.5 6.9zm-16.1-20.5H802c7 0 13-1.3 17.8-3.8 4.8-2.5 8.5-6.4 10.9-11.7 2.4-5.3 3.7-12.2 3.7-20.6 0-8.3-1.2-15.1-3.7-20.4-2.4-5.3-6.1-9.2-10.9-11.7-4.8-2.5-10.7-3.7-17.8-3.7h-15.2v71.9zM891.7 115.9c-5.4 0-10.2-.9-14.4-2.8-4.2-1.9-7.6-4.7-10-8.4-2.4-3.7-3.7-8.4-3.7-14 0-4.7.9-8.6 2.6-11.8 1.7-3.2 4.1-5.8 7-7.7 3-1.9 6.4-3.4 10.2-4.4s7.8-1.7 12-2.1c4.9-.5 8.9-1 11.9-1.5s5.2-1.1 6.5-2.1c1.4-.9 2-2.3 2-4.1v-.3c0-3.5-1.1-6.2-3.3-8.1-2.2-1.9-5.3-2.9-9.3-2.9-4.2 0-7.6.9-10.1 2.8s-4.1 4.2-5 7l-21.7-1.8c1.1-5.1 3.3-9.6 6.5-13.3 3.2-3.8 7.4-6.7 12.5-8.7s11.1-3.1 17.8-3.1c4.7 0 9.2.6 13.5 1.7 4.3 1.1 8.1 2.8 11.5 5.1 3.4 2.3 6 5.3 8 8.9 1.9 3.6 2.9 7.9 2.9 13v57h-22.2v-11.7h-.7c-1.4 2.6-3.2 5-5.4 7-2.3 2-5 3.6-8.2 4.7-3 1-6.7 1.6-10.9 1.6zm6.7-16.2c3.4 0 6.5-.7 9.1-2.1 2.6-1.4 4.7-3.2 6.2-5.6 1.5-2.3 2.3-5 2.3-8v-9c-.7.5-1.7.9-3 1.3s-2.7.7-4.3 1c-1.6.3-3.2.6-4.7.8-1.6.2-3 .4-4.3.6-2.8.4-5.2 1-7.2 1.9-2.1.9-3.7 2.1-4.8 3.6-1.1 1.5-1.7 3.3-1.7 5.5 0 3.2 1.2 5.6 3.5 7.3 2.4 1.8 5.3 2.7 8.9 2.7zM994.8 29.7v17.6h-50.9V29.7h50.9zM955.4 9.5h23.4v78.8c0 2.2.3 3.8 1 5 .7 1.2 1.6 2 2.8 2.5 1.2.5 2.6.7 4.2.7 1.1 0 2.2-.1 3.3-.3 1.1-.2 1.9-.4 2.5-.5l3.7 17.4c-1.2.4-2.8.8-5 1.3-2.1.5-4.7.8-7.8.9-5.7.2-10.6-.5-14.8-2.3-4.2-1.7-7.5-4.4-9.9-8-2.3-3.6-3.5-8.2-3.5-13.8V9.5zM1026.4 115.9c-5.4 0-10.2-.9-14.4-2.8-4.2-1.9-7.6-4.7-10-8.4-2.4-3.7-3.7-8.4-3.7-14 0-4.7.9-8.6 2.6-11.8 1.7-3.2 4.1-5.8 7-7.7 3-1.9 6.4-3.4 10.2-4.4s7.8-1.7 12-2.1c4.9-.5 8.9-1 11.9-1.5s5.2-1.1 6.5-2.1c1.4-.9 2-2.3 2-4.1v-.3c0-3.5-1.1-6.2-3.3-8.1-2.2-1.9-5.3-2.9-9.3-2.9-4.2 0-7.6.9-10.1 2.8s-4.1 4.2-5 7l-21.7-1.8c1.1-5.1 3.3-9.6 6.5-13.3 3.2-3.8 7.4-6.7 12.5-8.7 5.1-2 11.1-3.1 17.8-3.1 4.7 0 9.2.6 13.5 1.7 4.3 1.1 8.1 2.8 11.5 5.1 3.4 2.3 6 5.3 8 8.9 1.9 3.6 2.9 7.9 2.9 13v57h-22.2v-11.7h-.7c-1.4 2.6-3.2 5-5.4 7-2.3 2-5 3.6-8.2 4.7-3.1 1-6.8 1.6-10.9 1.6zm6.7-16.2c3.4 0 6.5-.7 9.1-2.1 2.6-1.4 4.7-3.2 6.2-5.6 1.5-2.3 2.3-5 2.3-8v-9c-.7.5-1.7.9-3 1.3s-2.7.7-4.3 1c-1.6.3-3.2.6-4.7.8-1.6.2-3 .4-4.3.6-2.8.4-5.2 1-7.2 1.9-2.1.9-3.7 2.1-4.8 3.6-1.1 1.5-1.7 3.3-1.7 5.5 0 3.2 1.2 5.6 3.5 7.3 2.3 1.8 5.3 2.7 8.9 2.7zM372.4 249.3V136.5h44.5c8.5 0 15.8 1.5 21.8 4.5s10.6 7.3 13.8 12.8c3.2 5.5 4.8 12 4.8 19.5s-1.6 13.9-4.8 19.3c-3.2 5.4-7.9 9.5-14 12.4s-13.5 4.3-22.2 4.3h-29.8v-19.2h25.9c4.5 0 8.3-.6 11.3-1.9 3-1.2 5.3-3.1 6.7-5.6 1.5-2.5 2.2-5.6 2.2-9.3 0-3.7-.7-6.9-2.2-9.5-1.5-2.6-3.7-4.5-6.8-5.9s-6.8-2-11.4-2h-16.1v93.2h-23.7zm60.9-51.3l28 51.3H435L407.6 198h25.7zM503.1 250.9c-8.7 0-16.2-1.8-22.4-5.3-6.3-3.5-11.1-8.6-14.4-15.1-3.4-6.5-5.1-14.2-5.1-23.1 0-8.7 1.7-16.3 5.1-22.9 3.4-6.6 8.1-11.7 14.3-15.4 6.1-3.7 13.4-5.5 21.7-5.5 5.6 0 10.8.9 15.6 2.7 4.8 1.8 9 4.5 12.7 8 3.6 3.6 6.4 8 8.4 13.4s3 11.7 3 18.9v6.4h-71.4v-14.5h49.3c0-3.4-.7-6.4-2.2-9-1.5-2.6-3.5-4.7-6.1-6.1-2.6-1.5-5.6-2.2-9-2.2-3.6 0-6.7.8-9.4 2.4-2.7 1.6-4.9 3.8-6.4 6.6s-2.3 5.8-2.4 9.1v13.8c0 4.2.8 7.8 2.3 10.8 1.6 3 3.8 5.4 6.6 7s6.3 2.5 10.2 2.5c2.6 0 5-.4 7.2-1.1 2.2-.7 4-1.8 5.6-3.3 1.5-1.5 2.7-3.3 3.5-5.4l21.7 1.4c-1.1 5.2-3.3 9.8-6.7 13.6-3.4 3.9-7.8 6.9-13.1 9-5.5 2.2-11.7 3.3-18.6 3.3zM628.7 281h-23.4v-45.2h-.7c-1.1 2.3-2.7 4.7-4.7 7s-4.6 4.2-7.8 5.7-7 2.3-11.6 2.3c-6.4 0-12.2-1.7-17.4-5-5.2-3.3-9.3-8.2-12.3-14.7s-4.5-14.4-4.5-23.9c0-9.7 1.6-17.8 4.7-24.2 3.1-6.4 7.3-11.3 12.5-14.5 5.2-3.2 10.9-4.8 17.1-4.8 4.7 0 8.7.8 11.9 2.4 3.2 1.6 5.7 3.6 7.7 5.9 2 2.4 3.5 4.7 4.5 7h1v-14.2h23.1V281zm-22.9-74c0-5-.7-9.4-2.1-13.1-1.4-3.7-3.4-6.6-6.1-8.6-2.6-2-5.9-3-9.6-3-3.9 0-7.1 1-9.7 3.1-2.6 2.1-4.6 5-6 8.7-1.4 3.7-2 8-2 12.9s.7 9.3 2.1 13c1.4 3.8 3.4 6.7 6 8.8 2.6 2.1 5.9 3.2 9.7 3.2 3.8 0 7-1 9.6-3.1 2.6-2.1 4.6-5 6.1-8.7 1.3-3.8 2-8.2 2-13.2zM693.9 213.3v-48.5h23.4v84.5h-22.5v-15.4h-.8c-1.9 5-5.1 8.9-9.5 11.9s-9.8 4.5-16.2 4.5c-5.7 0-10.6-1.3-14.9-3.9-4.3-2.6-7.6-6.2-10-11-2.4-4.7-3.6-10.4-3.7-17v-53.8h23.4v49.6c0 5 1.4 8.9 4 11.8 2.6 2.9 6.2 4.3 10.6 4.3 2.8 0 5.5-.7 7.9-2s4.4-3.2 6-5.8c1.6-2.3 2.3-5.4 2.3-9.2zM766.8 250.9c-8.7 0-16.2-1.8-22.4-5.3-6.3-3.5-11.1-8.6-14.4-15.1-3.4-6.5-5.1-14.2-5.1-23.1 0-8.7 1.7-16.3 5.1-22.9 3.4-6.6 8.1-11.7 14.3-15.4 6.1-3.7 13.4-5.5 21.7-5.5 5.6 0 10.8.9 15.6 2.7 4.8 1.8 9 4.5 12.7 8 3.6 3.6 6.4 8 8.4 13.4s3 11.7 3 18.9v6.4h-71.4v-14.5h49.3c0-3.4-.7-6.4-2.2-9-1.5-2.6-3.5-4.7-6.1-6.1s-5.6-2.2-9-2.2c-3.6 0-6.7.8-9.4 2.4-2.7 1.6-4.9 3.8-6.4 6.6s-2.3 5.8-2.4 9.1v13.8c0 4.2.8 7.8 2.3 10.8 1.6 3 3.8 5.4 6.6 7s6.3 2.5 10.2 2.5c2.6 0 5-.4 7.2-1.1 2.2-.7 4-1.8 5.6-3.3 1.5-1.5 2.7-3.3 3.5-5.4l21.7 1.4c-1.1 5.2-3.3 9.8-6.7 13.6-3.4 3.9-7.8 6.9-13.1 9-5.4 2.2-11.6 3.3-18.6 3.3zM883.5 188.8l-21.5 1.3c-.4-1.8-1.2-3.5-2.4-5s-2.8-2.7-4.8-3.6c-2-.9-4.3-1.3-7-1.3-3.6 0-6.7.8-9.2 2.3-2.5 1.5-3.7 3.6-3.7 6.1 0 2 .8 3.7 2.4 5.1 1.6 1.4 4.4 2.5 8.3 3.4l15.3 3.1c8.2 1.7 14.3 4.4 18.4 8.1 4 3.7 6.1 8.7 6.1 14.8 0 5.5-1.6 10.4-4.9 14.6-3.2 4.2-7.7 7.4-13.3 9.8s-12.1 3.5-19.5 3.5c-11.2 0-20.1-2.3-26.7-7-6.6-4.7-10.5-11.1-11.6-19.1l23.1-1.2c.7 3.4 2.4 6 5.1 7.8 2.7 1.8 6.1 2.7 10.3 2.7 4.1 0 7.4-.8 9.9-2.4 2.5-1.6 3.8-3.7 3.8-6.2 0-2.1-.9-3.9-2.7-5.3s-4.5-2.4-8.1-3.2l-14.6-2.9c-8.3-1.7-14.4-4.5-18.4-8.6-4-4.1-6-9.3-6-15.6 0-5.4 1.5-10.1 4.4-14s7.1-7 12.5-9.1c5.4-2.1 11.7-3.2 18.9-3.2 10.7 0 19.1 2.3 25.2 6.8s9.7 10.6 10.7 18.3zM937.5 164.7v17.6h-50.9v-17.6h50.9zm-39.4-20.2h23.4v78.8c0 2.2.3 3.8 1 5 .7 1.2 1.6 2 2.8 2.5 1.2.5 2.6.7 4.2.7 1.1 0 2.2-.1 3.3-.3 1.1-.2 1.9-.4 2.5-.5l3.7 17.4c-1.2.4-2.8.8-5 1.3s-4.7.8-7.8.9c-5.7.2-10.6-.5-14.8-2.3s-7.5-4.4-9.9-8c-2.3-3.6-3.5-8.2-3.5-13.8v-81.7z"/><path d="M982.1 249.3h-14.3l41.4-112.7h14.1l41.4 112.7h-14.3l-33.7-94.9h-.9l-33.7 94.9zm5.3-44.1h57.7v12.1h-57.7v-12.1zM1074.5 249.3V136.5h38.1c8.8 0 16.1 1.6 21.7 4.8 5.6 3.2 9.8 7.5 12.5 12.9 2.7 5.4 4.1 11.4 4.1 18.1 0 6.6-1.3 12.7-4 18.1s-6.9 9.8-12.5 13c-5.6 3.2-12.8 4.8-21.6 4.8h-27.3V196h26.9c6.1 0 10.9-1 14.6-3.1 3.7-2.1 6.3-4.9 8-8.5 1.7-3.6 2.5-7.6 2.5-12.1s-.8-8.5-2.5-12.1c-1.7-3.6-4.4-6.4-8.1-8.4-3.7-2-8.6-3.1-14.8-3.1h-24v100.6h-13.6zM1178.8 136.5v112.7h-13.7V136.5h13.7z"/><g><linearGradient id="SVGID_1_" gradientUnits="userSpaceOnUse" x1="80.451" y1="245.363" x2="130.452" y2="245.363" gradientTransform="matrix(1.01 -1.01 .5355 .5355 -56.726 156.917)"><stop offset="0" stop-color="#4000a4"/><stop offset="1" stop-color="#00f"/></linearGradient><path d="M238.2 238.8c-13.9 13.9-36.6 13.9-50.5 0l-63.6-63.6c-13.9-13.9-13.9-36.6 0-50.5 13.9-13.9 36.6-13.9 50.5 0l63.6 63.6c13.9 14 13.9 36.6 0 50.5z" fill="url(#SVGID_1_)"/><linearGradient id="SVGID_2_" gradientUnits="userSpaceOnUse" x1="21.967" y1="227.297" x2="150" y2="99.264"><stop offset="0" stop-color="#4000a4"/><stop offset="1" stop-color="#00f"/></linearGradient><path d="M98.9 150.4v23.9c0 13.2-10.7 23.9-23.9 23.9s-23.9-10.7-23.9-23.9 10.7-23.9 23.9-23.9h23.9M150 99.3H75c-41.4 0-75 33.6-75 75s33.6 75 75 75 75-33.6 75-75v-75z" fill="url(#SVGID_2_)"/><linearGradient id="SVGID_3_" gradientUnits="userSpaceOnUse" x1="98.667" y1="150.098" x2="226.7" y2="22.065"><stop offset="0" stop-color="#4000a4"/><stop offset="1" stop-color="#00f"/></linearGradient><path d="M149.8 99V75.1c0-13.2 10.7-23.9 23.9-23.9s23.9 10.7 23.9 23.9S186.8 99 173.7 99h-23.9m-51.1 51.1h75c41.4 0 75-33.6 75-75s-33.6-75-75-75-75 33.6-75 75v75z" fill="url(#SVGID_3_)"/></g></svg>